<mxfile host="app.diagrams.net" modified="2024-02-05T05:29:46.525Z" agent="Mozilla/5.0 (Windows NT 10.0; Win64; x64) AppleWebKit/537.36 (KHTML, like Gecko) Chrome/121.0.0.0 Safari/537.36" etag="TZgf9XibK64ESSREtSuY" version="23.1.1" type="github">
  <diagram name="Seite-1" id="-ljIlcQ2SC2XeH63euJ5">
    <mxGraphModel dx="1232" dy="1089" grid="1" gridSize="10" guides="1" tooltips="1" connect="1" arrows="1" fold="1" page="1" pageScale="1" pageWidth="827" pageHeight="1169" math="0" shadow="0">
      <root>
        <mxCell id="0" />
        <mxCell id="1" parent="0" />
        <mxCell id="HVEB7O02BdVPJSeHr-JD-2" value="" style="endArrow=none;html=1;rounded=0;" parent="1" edge="1">
          <mxGeometry width="50" height="50" relative="1" as="geometry">
            <mxPoint x="320" y="680" as="sourcePoint" />
            <mxPoint x="320" y="400" as="targetPoint" />
          </mxGeometry>
        </mxCell>
        <mxCell id="HVEB7O02BdVPJSeHr-JD-9" value="" style="verticalLabelPosition=bottom;verticalAlign=top;html=1;shape=mxgraph.basic.arc;startAngle=0.7468173254495136;endAngle=0.2517488850233619;" parent="1" vertex="1">
          <mxGeometry x="320" y="350" width="100" height="100" as="geometry" />
        </mxCell>
        <mxCell id="HVEB7O02BdVPJSeHr-JD-10" value="" style="verticalLabelPosition=bottom;verticalAlign=top;html=1;shape=mxgraph.basic.arc;startAngle=0.7468173254495136;endAngle=0.2517488850233619;rotation=-180;" parent="1" vertex="1">
          <mxGeometry x="320" y="630" width="100" height="100" as="geometry" />
        </mxCell>
        <mxCell id="HVEB7O02BdVPJSeHr-JD-11" value="&lt;font style=&quot;font-size: 20px;&quot;&gt;S&lt;/font&gt;" style="ellipse;whiteSpace=wrap;html=1;aspect=fixed;" parent="1" vertex="1">
          <mxGeometry x="335" y="365" width="70" height="70" as="geometry" />
        </mxCell>
        <mxCell id="HVEB7O02BdVPJSeHr-JD-12" value="&lt;font style=&quot;font-size: 20px;&quot;&gt;N&lt;/font&gt;" style="ellipse;whiteSpace=wrap;html=1;aspect=fixed;" parent="1" vertex="1">
          <mxGeometry x="335" y="645" width="70" height="70" as="geometry" />
        </mxCell>
        <mxCell id="HVEB7O02BdVPJSeHr-JD-13" value="5" style="ellipse;whiteSpace=wrap;html=1;aspect=fixed;" parent="1" vertex="1">
          <mxGeometry x="360" y="450" width="20" height="20" as="geometry" />
        </mxCell>
        <mxCell id="HVEB7O02BdVPJSeHr-JD-14" value="3" style="ellipse;whiteSpace=wrap;html=1;aspect=fixed;" parent="1" vertex="1">
          <mxGeometry x="360" y="530" width="20" height="20" as="geometry" />
        </mxCell>
        <mxCell id="HVEB7O02BdVPJSeHr-JD-15" value="4" style="ellipse;whiteSpace=wrap;html=1;aspect=fixed;" parent="1" vertex="1">
          <mxGeometry x="360" y="490" width="20" height="20" as="geometry" />
        </mxCell>
        <mxCell id="HVEB7O02BdVPJSeHr-JD-16" value="2" style="ellipse;whiteSpace=wrap;html=1;aspect=fixed;" parent="1" vertex="1">
          <mxGeometry x="360" y="570" width="20" height="20" as="geometry" />
        </mxCell>
        <mxCell id="HVEB7O02BdVPJSeHr-JD-17" value="1" style="ellipse;whiteSpace=wrap;html=1;aspect=fixed;" parent="1" vertex="1">
          <mxGeometry x="360" y="610" width="20" height="20" as="geometry" />
        </mxCell>
        <mxCell id="HVEB7O02BdVPJSeHr-JD-18" value="" style="endArrow=none;html=1;rounded=0;" parent="1" edge="1">
          <mxGeometry width="50" height="50" relative="1" as="geometry">
            <mxPoint x="420" y="680" as="sourcePoint" />
            <mxPoint x="420" y="400" as="targetPoint" />
          </mxGeometry>
        </mxCell>
      </root>
    </mxGraphModel>
  </diagram>
</mxfile>
